<svg width="32" height="32" viewBox="0 0 32 32" fill="none" xmlns="http://www.w3.org/2000/svg">
<path fill-rule="evenodd" clip-rule="evenodd" d="M22.708 3.29202C22.8011 3.38491 22.875 3.49526 22.9254 3.61675C22.9759 3.73824 23.0018 3.86848 23.0018 4.00002C23.0018 4.13155 22.9759 4.26179 22.9254 4.38329C22.875 4.50478 22.8011 4.61513 22.708 4.70802L11.414 16L22.708 27.292C22.8958 27.4798 23.0013 27.7345 23.0013 28C23.0013 28.2656 22.8958 28.5202 22.708 28.708C22.5202 28.8958 22.2656 29.0013 22 29.0013C21.7345 29.0013 21.4798 28.8958 21.292 28.708L9.29202 16.708C9.19889 16.6151 9.125 16.5048 9.07459 16.3833C9.02418 16.2618 8.99823 16.1316 8.99823 16C8.99823 15.8685 9.02418 15.7382 9.07459 15.6168C9.125 15.4953 9.19889 15.3849 9.29202 15.292L21.292 3.29202C21.3849 3.19889 21.4953 3.12501 21.6168 3.07459C21.7382 3.02418 21.8685 2.99823 22 2.99823C22.1316 2.99823 22.2618 3.02418 22.3833 3.07459C22.5048 3.12501 22.6151 3.19889 22.708 3.29202V3.29202Z" fill="black"/>
</svg>
