<svg width="32" height="32" viewBox="0 0 32 32" fill="none" xmlns="http://www.w3.org/2000/svg">
<path fill-rule="evenodd" clip-rule="evenodd" d="M9.29202 3.29202C9.38491 3.19889 9.49526 3.12501 9.61675 3.07459C9.73824 3.02418 9.86848 2.99823 10 2.99823C10.1316 2.99823 10.2618 3.02418 10.3833 3.07459C10.5048 3.12501 10.6151 3.19889 10.708 3.29202L22.708 15.292C22.8011 15.3849 22.875 15.4953 22.9254 15.6168C22.9759 15.7382 23.0018 15.8685 23.0018 16C23.0018 16.1316 22.9759 16.2618 22.9254 16.3833C22.875 16.5048 22.8011 16.6151 22.708 16.708L10.708 28.708C10.5202 28.8958 10.2656 29.0013 10 29.0013C9.73447 29.0013 9.47979 28.8958 9.29202 28.708C9.10424 28.5202 8.99875 28.2656 8.99875 28C8.99875 27.7345 9.10424 27.4798 9.29202 27.292L20.586 16L9.29202 4.70802C9.19889 4.61513 9.125 4.50478 9.07459 4.38329C9.02418 4.26179 8.99823 4.13155 8.99823 4.00002C8.99823 3.86848 9.02418 3.73824 9.07459 3.61675C9.125 3.49526 9.19889 3.38491 9.29202 3.29202Z" fill="black"/>
</svg>
